<?xml version="1.0" encoding="utf-8"?>
<!-- Generator: Adobe Illustrator 24.3.0, SVG Export Plug-In . SVG Version: 6.00 Build 0)  -->
<svg version="1.1" id="Layer_1" xmlns="http://www.w3.org/2000/svg" xmlns:xlink="http://www.w3.org/1999/xlink" x="0px" y="0px"
	 viewBox="0 0 499.77 92.15" style="enable-background:new 0 0 499.77 92.15;" xml:space="preserve">
<style type="text/css">
	.st0{fill:#FFFFFF;stroke:#FFFFFF;stroke-width:2.7117;stroke-miterlimit:10;}
	.st1{fill:#FFFFFF;}
	.st2{fill:url(#SVGID_1_);}
	.st3{fill:url(#SVGID_2_);}
</style>
<g>
	<path className="st0" d="M126.88,46.25c-0.29,0-1.18,3.54-2.69,10.63c-1.51,7.09-2.26,11.38-2.26,12.87c0,2.61,0.28,4.43,0.83,5.46
		c0.56,1.03,1.47,1.55,2.74,1.55c1.78,0,3.49-0.31,5.12-0.93c1.64-0.62,3.79-2.01,6.46-4.17c1.65-1.37,3.05-2.05,4.19-2.05
		c0.92,0,1.66,0.26,2.22,0.79c0.56,0.52,0.83,1.14,0.83,1.84c0,2.8-2.26,5.97-6.77,9.51c-4.51,3.54-9.28,5.31-14.3,5.31
		c-4.19,0-7.4-1.24-9.6-3.72c-2.21-2.48-3.31-6.04-3.31-10.68c0-4.29,1.6-12.85,4.81-25.69c-2.03,0.22-3.45,0.33-4.24,0.33h-1
		c-1.46,0-2.95-0.48-4.46-1.43c-1.51-0.95-2.26-2.48-2.26-4.58c0-2.67,1.51-4,4.53-4l10.2-0.38c1.33-3.85,2.75-8.88,4.24-15.11
		c0.89-3.88,2.91-5.82,6.05-5.82c1.75,0,3.11,0.53,4.1,1.6c0.98,1.06,1.48,2.25,1.48,3.55c0,0.51-1.35,5.42-4.05,14.73
		c10.11-0.89,15.65-1.33,16.64-1.33c1.68,0,2.8,0.25,3.34,0.74c0.54,0.49,0.81,1.44,0.81,2.84c0,2.83-2.4,4.62-7.2,5.39
		L126.88,46.25z"/>
	<path className="st0" d="M164.92,61.31l0.81-1.53c3.84-7.72,7.98-13.99,12.42-18.8s8.76-7.22,12.99-7.22c3.24,0,5.89,0.89,7.94,2.67
		c2.05,1.78,3.07,3.89,3.07,6.34c0,1.53-0.35,2.84-1.05,3.93c-0.7,1.1-1.67,1.64-2.91,1.64c-1.97,0-3.77-0.81-5.39-2.43
		c-1.14-1.05-2.05-1.57-2.72-1.57c-2.38,0-6.37,3.7-11.96,11.11c-5.59,7.4-8.96,15.73-10.11,24.98c-0.35,2.67-1.13,4.54-2.34,5.6
		c-1.21,1.06-2.84,1.6-4.91,1.6c-2.19,0-3.75-1.25-4.67-3.74c-0.92-2.49-1.38-6.57-1.38-12.23c0-2.32,0.06-5.45,0.19-9.39
		c0.13-3.72,0.49-8.26,1.1-13.63c0.16-1.4,0.27-2.49,0.33-3.29c0.29-3.11,0.61-5.25,0.98-6.41c0.36-1.16,1.22-2.25,2.55-3.27
		c1.33-1.02,2.81-1.53,4.43-1.53c1.72,0,3.02,0.49,3.91,1.48c0.89,0.99,1.33,2.07,1.33,3.24c0,1.49-0.72,4.59-2.15,9.3
		c-0.51,1.62-0.94,3.56-1.29,5.82L164.92,61.31z"/>
	<path className="st0" d="M245.66,68.55c0,3.3-2.78,7.25-8.34,11.85c-5.56,4.59-11.84,6.89-18.83,6.89c-5.37,0-9.6-1.69-12.68-5.08
		c-3.08-3.38-4.62-8.1-4.62-14.13c0-8.9,3.15-17.24,9.44-25.03s13.01-11.68,20.16-11.68c3.56,0,6.42,1.13,8.58,3.38
		s3.24,4.94,3.24,8.06c0,5.53-2.65,10.8-7.96,15.8s-12.11,8.46-20.4,10.37c-0.95,0.22-1.43,0.79-1.43,1.72
		c0,1.53,0.67,2.98,2.03,4.36c1.35,1.38,3.15,2.07,5.41,2.07c6.39,0,12.73-3.29,19.02-9.87c1.21-1.27,2.38-1.91,3.53-1.91
		C244.71,65.36,245.66,66.43,245.66,68.55z M213.68,60.12c5.02-1.02,9.45-3.16,13.27-6.44c3.83-3.27,5.74-6.24,5.74-8.91
		c0-1.05-0.29-1.93-0.88-2.65c-0.59-0.72-1.34-1.07-2.26-1.07c-2.76,0-5.83,2.03-9.2,6.1C216.98,51.22,214.76,55.54,213.68,60.12z"
		/>
	<path className="st0" d="M271.02,4.25c3.43,0,5.15,1.87,5.15,5.62c0,1.72-0.24,3.57-0.72,5.55c-0.48,1.99-1.78,6.9-3.91,14.75
		c-1.56,5.69-2.74,11.89-3.55,18.61c-0.81,6.72-1.22,11.97-1.22,15.75c0,4.04,0.3,8.83,0.91,14.4c0.16,1.49,0.24,2.43,0.24,2.81
		c0,1.91-0.7,3.54-2.1,4.91c-1.4,1.37-2.92,2.05-4.58,2.05c-2.26,0-3.85-1.06-4.77-3.19c-0.92-2.13-1.38-5.78-1.38-10.96
		c0-11.15,1.31-24.29,3.93-39.42s4.77-24.06,6.44-26.79C267.14,5.62,268.99,4.25,271.02,4.25z"/>
	<path className="st0" d="M298.76,4.25c3.43,0,5.15,1.87,5.15,5.62c0,1.72-0.24,3.57-0.71,5.55s-1.78,6.9-3.91,14.75
		c-1.56,5.69-2.74,11.89-3.55,18.61s-1.22,11.97-1.22,15.75c0,4.04,0.3,8.83,0.91,14.4c0.16,1.49,0.24,2.43,0.24,2.81
		c0,1.91-0.7,3.54-2.1,4.91c-1.4,1.37-2.92,2.05-4.58,2.05c-2.26,0-3.85-1.06-4.77-3.19c-0.92-2.13-1.38-5.78-1.38-10.96
		c0-11.15,1.31-24.29,3.93-39.42s4.77-24.06,6.44-26.79S296.73,4.25,298.76,4.25z"/>
	<path className="st0" d="M354.11,60.78c-2.13,7.44-6.17,13.7-12.13,18.8c-5.96,5.1-11.91,7.65-17.85,7.65c-4.7,0-8.58-1.72-11.63-5.17
		c-3.05-3.45-4.58-7.68-4.58-12.7c0-8.2,2.8-16.27,8.39-24.21c5.59-7.94,12.38-11.92,20.35-11.92c5.43,0,9.84,2.01,13.2,6.03
		c3.37,4.02,5.05,8.81,5.05,14.37c0,2.42-0.27,4.78-0.81,7.1V60.78z M329.32,45.72c-2.22,1.97-4.4,5.12-6.53,9.44
		c-2.13,4.32-3.19,8.66-3.19,13.01c0,2.64,0.48,4.81,1.45,6.53c0.97,1.72,2.25,2.57,3.84,2.57c3.94,0,8.04-2.34,12.3-7.01
		c4.26-4.67,6.39-9.91,6.39-15.73c0-3.27-0.69-5.97-2.07-8.08c-1.38-2.11-3.31-3.17-5.79-3.17c-2.35,0-4.46,0.81-6.34,2.43H329.32z"
		/>
</g>
<ellipse className="st1" cx="53.67" cy="46.47" rx="25.49" ry="24.74"/>
<linearGradient id="SVGID_1_" gradientUnits="userSpaceOnUse" x1="54.0738" y1="19.0466" x2="90.9534" y2="19.0466">
	<stop  offset="0" style="stop-color:#EF4242"/>
	<stop  offset="0.1406" style="stop-color:#EF4249"/>
	<stop  offset="0.3955" style="stop-color:#EF4458"/>
	<stop  offset="0.733" style="stop-color:#EF466E"/>
	<stop  offset="1" style="stop-color:#EF4781"/>
</linearGradient>
<ellipse className="st2" cx="72.51" cy="19.05" rx="18.44" ry="17.9"/>
<linearGradient id="SVGID_2_" gradientUnits="userSpaceOnUse" x1="45.351" y1="46.4803" x2="63.5197" y2="46.4803">
	<stop  offset="0" style="stop-color:#DF188E"/>
	<stop  offset="0.0136" style="stop-color:#E0208C"/>
	<stop  offset="0.2292" style="stop-color:#E75D7E"/>
	<stop  offset="0.4321" style="stop-color:#ED7C6C"/>
	<stop  offset="0.6162" style="stop-color:#F29056"/>
	<stop  offset="0.778" style="stop-color:#F79F3D"/>
	<stop  offset="0.9115" style="stop-color:#FAA92A"/>
	<stop  offset="1" style="stop-color:#FBAC21"/>
</linearGradient>
<ellipse className="st3" cx="54.44" cy="46.48" rx="9.08" ry="8.82"/>
<g>
	<path className="st0" d="M374.83,85.75c-1.75,0-3.08-0.48-3.99-1.43c-0.91-0.95-1.37-2.28-1.37-3.97c0-2.67,1.09-5.56,3.26-8.66
		c2.17-3.1,4.3-4.66,6.39-4.66c1.01,0,1.86,0.5,2.57,1.5c0.71,1,1.06,2.04,1.06,3.12c0,1.02-0.19,1.7-0.56,2.06
		c-0.38,0.35-0.74,0.53-1.09,0.53c-1.03,0-1.63-0.71-1.8-2.13c-0.13-1.04-0.39-1.56-0.78-1.56c-0.83,0-1.92,1.18-3.27,3.53
		c-1.36,2.35-2.03,4.41-2.03,6.18c0,1.43,0.77,2.15,2.32,2.15c1.71,0,3.43-0.6,5.16-1.81c0.82-0.58,1.46-0.87,1.94-0.87
		c0.58,0,0.87,0.29,0.87,0.87c0,0.82-0.93,1.88-2.8,3.19C378.84,85.1,376.88,85.75,374.83,85.75z"/>
	<path className="st0" d="M392.38,57.98c1.14,0,1.72,0.62,1.72,1.87c0,0.57-0.08,1.19-0.24,1.85c-0.16,0.66-0.59,2.3-1.3,4.92
		c-0.52,1.9-0.91,3.96-1.18,6.2c-0.27,2.24-0.41,3.99-0.41,5.25c0,1.35,0.1,2.94,0.3,4.8c0.05,0.5,0.08,0.81,0.08,0.94
		c0,0.64-0.23,1.18-0.7,1.64c-0.47,0.46-0.97,0.68-1.53,0.68c-0.75,0-1.28-0.35-1.59-1.06c-0.31-0.71-0.46-1.93-0.46-3.65
		c0-3.72,0.44-8.1,1.31-13.14c0.87-5.04,1.59-8.02,2.15-8.93C391.09,58.43,391.7,57.98,392.38,57.98z"/>
	<path className="st0" d="M410.83,76.82c-0.71,2.48-2.06,4.57-4.04,6.27c-1.99,1.7-3.97,2.55-5.95,2.55c-1.57,0-2.86-0.57-3.88-1.72
		c-1.02-1.15-1.53-2.56-1.53-4.23c0-2.73,0.93-5.42,2.8-8.07c1.86-2.65,4.13-3.97,6.78-3.97c1.81,0,3.28,0.67,4.4,2.01
		c1.12,1.34,1.68,2.94,1.68,4.79c0,0.81-0.09,1.59-0.27,2.37V76.82z M402.57,71.8c-0.74,0.66-1.47,1.71-2.18,3.15
		c-0.71,1.44-1.06,2.89-1.06,4.34c0,0.88,0.16,1.6,0.48,2.18c0.32,0.57,0.75,0.86,1.28,0.86c1.31,0,2.68-0.78,4.1-2.34
		s2.13-3.3,2.13-5.24c0-1.09-0.23-1.99-0.69-2.69c-0.46-0.7-1.1-1.06-1.93-1.06c-0.78,0-1.49,0.27-2.11,0.81H402.57z"/>
	<path className="st0" d="M427.5,82.56c-0.51-0.95-0.88-2.73-1.11-5.34c-0.23-2.71-0.75-4.07-1.56-4.07c-0.76,0-2.08,1.41-3.96,4.23
		c-1.87,2.82-3.03,4.91-3.46,6.25c-0.1,0.4-0.27,0.74-0.53,1s-0.52,0.4-0.77,0.4c-1.61,0-2.42-0.74-2.42-2.21
		c0-0.5,0.16-1.63,0.48-3.4c0.41-2.29,0.62-5.08,0.62-8.39c0-0.5,0.22-1.03,0.65-1.6c0.43-0.57,0.9-0.85,1.38-0.85
		c0.61,0,1.09,0.15,1.41,0.46c0.33,0.31,0.49,1.12,0.49,2.45c0,1.01-0.3,2.96-0.91,5.85c2.3-5.38,4.86-8.07,7.69-8.07
		c2.46,0,3.9,1.93,4.32,5.8c0.42,3.94,0.91,5.91,1.46,5.91c0.24,0,0.52-0.05,0.84-0.16c0.38-0.13,0.68-0.19,0.91-0.19
		c0.51,0,0.76,0.3,0.76,0.89c0,0.54-0.35,1.11-1.05,1.72c-0.7,0.61-1.58,0.91-2.64,0.91c-1.23,0-2.11-0.53-2.64-1.6H427.5z"/>
	<path className="st0" d="M449.89,79.41c0,1.1-0.93,2.42-2.78,3.95c-1.85,1.53-3.95,2.3-6.28,2.3c-1.79,0-3.2-0.56-4.23-1.69
		c-1.03-1.13-1.54-2.7-1.54-4.71c0-2.97,1.05-5.75,3.15-8.34c2.1-2.6,4.34-3.89,6.72-3.89c1.19,0,2.14,0.38,2.86,1.13
		c0.72,0.75,1.08,1.65,1.08,2.69c0,1.84-0.88,3.6-2.65,5.27c-1.77,1.67-4.04,2.82-6.8,3.46c-0.32,0.07-0.48,0.26-0.48,0.57
		c0,0.51,0.23,0.99,0.68,1.45c0.45,0.46,1.05,0.69,1.8,0.69c2.13,0,4.24-1.1,6.34-3.29c0.4-0.42,0.79-0.64,1.18-0.64
		C449.57,78.35,449.89,78.7,449.89,79.41z M439.22,76.6c1.67-0.34,3.15-1.05,4.43-2.15c1.28-1.09,1.91-2.08,1.91-2.97
		c0-0.35-0.1-0.64-0.29-0.88c-0.2-0.24-0.45-0.36-0.75-0.36c-0.92,0-1.94,0.68-3.07,2.03C440.33,73.63,439.58,75.07,439.22,76.6z"/>
</g>
</svg>
